<?xml version="1.0" encoding="utf-8"?>
<!-- Generator: Adobe Illustrator 19.0.0, SVG Export Plug-In . SVG Version: 6.00 Build 0)  -->
<svg version="1.1" id="Capa_1" xmlns="http://www.w3.org/2000/svg" xmlns:xlink="http://www.w3.org/1999/xlink" x="0px" y="0px"
	 viewBox="-253 131.2 333.1 333.1" style="enable-background:new -253 131.2 333.1 333.1;" xml:space="preserve">
<style type="text/css">
	.st0{fill:#003082;}
</style>
<g>
	<g>
		<path class="st0" d="M31.7,464.3c-3.6,0-7.1-1.6-9.6-4.4L-86.5,331.1L-195,459.8c-3.4,4-8.9,5.5-13.8,3.7
			c-4.9-1.8-8.2-6.5-8.2-11.7V143.7c0-6.9,5.6-12.5,12.5-12.5H31.7c6.9,0,12.5,5.6,12.5,12.5v308.1c0,5.2-3.3,9.9-8.2,11.7
			C34.5,464,33.1,464.3,31.7,464.3z M-86.5,299.2c3.7,0,7.2,1.6,9.6,4.4l96.1,113.9V156.2h-211.2v261.4L-96,303.7
			C-93.6,300.9-90.1,299.2-86.5,299.2z"/>
	</g>
</g>
</svg>
