<?xml version="1.0" encoding="utf-8"?>
<!-- Generator: Adobe Illustrator 19.0.0, SVG Export Plug-In . SVG Version: 6.00 Build 0)  -->
<svg version="1.1" id="Capa_1" xmlns="http://www.w3.org/2000/svg" xmlns:xlink="http://www.w3.org/1999/xlink" x="0px" y="0px"
	 viewBox="-390 268.3 60 60" style="enable-background:new -390 268.3 60 60;" xml:space="preserve">
<style type="text/css">
	.st0{fill:#003082;}
</style>
<g>
	<path class="st0" d="M-360,268.3c-16.5,0-30,13.5-30,30s13.5,30,30,30s30-13.5,30-30S-343.5,268.3-360,268.3z M-360,326.3
		c-15.4,0-28-12.6-28-28s12.6-28,28-28s28,12.6,28,28S-344.6,326.3-360,326.3z"/>
	<path class="st0" d="M-360,274.3c-0.6,0-1,0.4-1,1v23h-15c-0.6,0-1,0.4-1,1s0.4,1,1,1h16c0.6,0,1-0.4,1-1v-24
		C-359,274.7-359.4,274.3-360,274.3z"/>
</g>
</svg>
