<?xml version="1.0" encoding="utf-8"?>
<!-- Generator: Adobe Illustrator 19.0.0, SVG Export Plug-In . SVG Version: 6.00 Build 0)  -->
<svg version="1.1" id="Capa_1" xmlns="http://www.w3.org/2000/svg" xmlns:xlink="http://www.w3.org/1999/xlink" x="0px" y="0px"
	 viewBox="-412 290 15.3 15.3" style="enable-background:new -412 290 15.3 15.3;" xml:space="preserve">
<style type="text/css">
	.st0{fill:#003082;}
</style>
<g>
	<g>
		<path class="st0" d="M-398.5,305.3c-0.1,0-0.2,0-0.2-0.1l-4-2.1c-0.5,0.1-1.1,0.2-1.6,0.2c-3.9,0-7.2-3-7.2-6.6s3.2-6.6,7.2-6.6
			c3.9,0,7.2,3,7.2,6.6c0,1.8-0.8,3.5-2.2,4.8c-0.1,1.1,0.9,2.7,1.3,3.2c0.1,0.2,0.1,0.4,0,0.5
			C-398.3,305.2-398.4,305.3-398.5,305.3z M-402.7,302.2c0.1,0,0.2,0,0.2,0.1l2.8,1.5c-0.4-0.8-0.7-1.7-0.6-2.6
			c0-0.1,0.1-0.2,0.1-0.3c1.3-1.1,2.1-2.7,2.1-4.3c0-3.2-2.8-5.8-6.3-5.8s-6.3,2.6-6.3,5.8c0,3.2,2.8,5.8,6.3,5.8
			c0.5,0,1-0.1,1.6-0.2C-402.8,302.2-402.7,302.2-402.7,302.2z"/>
	</g>
</g>
</svg>
