<?xml version="1.0" encoding="utf-8"?>
<!-- Generator: Adobe Illustrator 19.0.0, SVG Export Plug-In . SVG Version: 6.00 Build 0)  -->
<svg version="1.1" id="Capa_1" xmlns="http://www.w3.org/2000/svg" xmlns:xlink="http://www.w3.org/1999/xlink" x="0px" y="0px"
	 viewBox="-175 52.9 490.4 490.4" style="enable-background:new -175 52.9 490.4 490.4;" xml:space="preserve">
<style type="text/css">
	.st0{fill:#003082;}
</style>
<g>
	<g>
		<path class="st0" d="M47.5,506.6c6.1,6.1,14.3,9.5,22.9,9.5c8.5,0,16.9-3.5,22.9-9.5L273,326.9c27.3-27.3,42.3-63.6,42.4-102.1
			c0-38.6-15-74.9-42.3-102.2S209.6,80.3,171,80.3c-37.9,0-73.6,14.5-100.7,40.9c-27.2-26.5-63-41.1-101-41.1
			c-38.5,0-74.7,15-102,42.2C-160,149.6-175,185.9-175,224.5c0,38.5,15.1,74.8,42.4,102.1L47.5,506.6z M-115.3,139.7
			c22.6-22.6,52.7-35.1,84.7-35.1s62.2,12.5,84.9,35.2l7.4,7.4c2.3,2.3,5.4,3.6,8.7,3.6l0,0c3.2,0,6.4-1.3,8.7-3.6l7.2-7.2
			c22.7-22.7,52.8-35.2,84.9-35.2c32,0,62.1,12.5,84.7,35.1c22.7,22.7,35.1,52.8,35.1,84.8s-12.5,62.1-35.2,84.8L76,489.3
			c-2.9,2.9-8.2,2.9-11.2,0l-180-180c-22.7-22.7-35.2-52.8-35.2-84.8S-137.9,162.4-115.3,139.7z"/>
	</g>
</g>
</svg>
