<?xml version="1.0" encoding="utf-8"?>
<!-- Generator: Adobe Illustrator 19.0.0, SVG Export Plug-In . SVG Version: 6.00 Build 0)  -->
<svg version="1.1" id="Layer_1" xmlns="http://www.w3.org/2000/svg" xmlns:xlink="http://www.w3.org/1999/xlink" x="0px" y="0px"
	 viewBox="-164 42.3 512 512" style="enable-background:new -164 42.3 512 512;" xml:space="preserve">
<style type="text/css">
	.st0{fill:#003082;}
</style>
<g>
	<g>
		<g>
			<path class="st0" d="M92,554.3c141.2,0,256-114.8,256-256s-114.8-256-256-256s-256,114.8-256,256S-49.2,554.3,92,554.3z M92,61.2
				c130.7,0,237,106.3,237,237s-106.3,237-237,237s-237-106.3-237-237S-38.7,61.2,92,61.2z"/>
			<path class="st0" d="M-91.9,328.6L37,425.3c15,11.3,26.1,8.5,31.4,5.9c5.3-2.6,14.1-9.9,14.1-28.6v-64l115.7,86.8
				c15,11.3,26.1,8.5,31.4,5.9c5.3-2.6,14.1-9.9,14.1-28.6l0-208.6c0-18.8-8.8-26-14.1-28.6c-5.3-2.6-16.4-5.4-31.5,5.9L82.5,258
				v-64c0-18.8-8.8-26-14.1-28.6c-2.3-1.2-5.8-2.3-10.2-2.3c-5.6,0-12.8,1.9-21.2,8.2l-128.9,96.7c-10.4,7.8-16.4,18.9-16.4,30.4
				C-108.3,309.8-102.3,320.8-91.9,328.6z M82.5,281.7l127-95.2c5.5-4.1,9.8-5,11.6-4.1c1.8,0.9,3.6,4.9,3.6,11.6l0,208.6
				c0,6.8-1.8,10.8-3.6,11.7c-0.4,0.2-1,0.3-1.6,0.3c-2.2,0-5.7-1.3-9.9-4.4L82.5,314.9L82.5,281.7L82.5,281.7z M-80.5,283.1
				l128.9-96.7c5.5-4.1,9.8-5,11.6-4.1c1.8,0.9,3.6,4.9,3.6,11.7v208.6c0,6.8-1.8,10.7-3.6,11.6c-0.4,0.2-1,0.3-1.6,0.3
				c-2.2,0-5.7-1.3-9.9-4.4l-128.9-96.7c-5.7-4.2-8.8-9.6-8.8-15.2C-89.3,292.7-86.2,287.3-80.5,283.1z"/>
		</g>
	</g>
</g>
</svg>
